<?xml version="1.0" encoding="UTF-8"?>
<svg xmlns="http://www.w3.org/2000/svg" width="512" height="512" viewBox="0 0 256 256">
  <defs>
    <linearGradient id="g" x1="0" x2="1" y1="0" y2="1">
      <stop offset="0%" stop-color="#14b8a6"/>
      <stop offset="100%" stop-color="#0ea5a3"/>
    </linearGradient>
    <filter id="shadow" x="-20%" y="-20%" width="140%" height="140%">
      <feOffset dx="0" dy="4"/>
      <feGaussianBlur stdDeviation="8" result="offset-blur"/>
      <feComposite operator="out" in="SourceGraphic" in2="offset-blur" result="inverse"/>
      <feFlood flood-color="#000" flood-opacity="0.25" result="color"/>
      <feComposite operator="in" in="color" in2="inverse" result="shadow"/>
      <feComposite operator="over" in="shadow" in2="SourceGraphic"/>
    </filter>
  </defs>
  <rect x="16" y="16" width="224" height="224" rx="40" fill="url(#g)"/>
  <g transform="translate(0,0)" filter="url(#shadow)">
    <g transform="translate(0,0)" fill="#ffffff">
      <path d="M128 60c-14 18-44 30-44 62 0 28 22 46 44 62 22-16 44-34 44-62 0-32-30-44-44-62z" opacity="0.15"/>
    </g>
  </g>
  <g transform="translate(0,4)" stroke="#ffffff" stroke-width="12" fill="none" stroke-linecap="round" stroke-linejoin="round">
    <path d="M128 200s-44-31.9-66-53.9C46.2 131.2 48 104 72 104c14 0 22 10 22 10s8-10 22-10c24 0 25.8 27.2 10 42.1C172 168.1 128 200 128 200z"/>
    <path d="M110 128h16v-16h16v16h16v16h-16v16h-16v-16h-16z"/>
  </g>
</svg>


